<?xml version="1.0" standalone="no"?>
<!DOCTYPE svg PUBLIC "-//W3C//DTD SVG 1.1//EN" "http://www.w3.org/Graphics/SVG/1.1/DTD/svg11.dtd" >
<svg xmlns="http://www.w3.org/2000/svg">
<metadata></metadata>
<defs>
<font id="glioregular" horiz-adv-x="196" >
<font-face units-per-em="2048" ascent="1536" descent="-512" />
<missing-glyph horiz-adv-x="409" />
<glyph horiz-adv-x="2048" />
<glyph horiz-adv-x="2048" />
<glyph unicode="&#xd;" horiz-adv-x="2048" />
<glyph unicode=" "  horiz-adv-x="409" />
<glyph unicode="&#x09;" horiz-adv-x="409" />
<glyph unicode="&#xa0;" horiz-adv-x="409" />
<glyph unicode="!" d="M66 0v193h65v-193h-65zM66 369v1065h65v-1065h-65z" />
<glyph unicode="#" horiz-adv-x="1064" d="M66 561l16 66h225l66 245h-226l21 66h221l135 496h66l-131 -496h246l131 496h69l-135 -496h229l-20 -66h-225l-66 -245h225l-16 -66h-225l-152 -561h-69l151 561h-246l-151 -561h-66l152 561h-225zM373 627h245l66 245h-242z" />
<glyph unicode="&#x26;" horiz-adv-x="1134" d="M66 389q0 74 30.5 135.5t79.5 112.5t107.5 92t113.5 74l-86 61q-72 59 -109.5 127t-37.5 139q0 68 25.5 127.5t68.5 102.5t101.5 68.5t123.5 25.5q59 0 116.5 -20.5t100.5 -61.5q47 -41 73 -96t26 -121q0 -96 -62.5 -177t-204.5 -167q53 -18 113 -34.5t133 -26.5v-70 q-92 16 -170 37.5t-137 52.5q-55 -33 -115.5 -70.5t-109.5 -84t-82 -102.5t-33 -124q0 -78 28.5 -140.5t79 -108.5t120 -70.5t153.5 -24.5q66 0 128 23.5t105 70.5q55 53 79 112.5t30 110.5q8 59 -2 117q33 6 66 15q29 8 57.5 19t48.5 28l45 -37q-37 -37 -78 -52.5 t-69 -21.5q2 -31 -2.5 -71t-17.5 -85t-39.5 -92t-71.5 -92q-53 -53 -127 -81.5t-152 -28.5q-86 0 -168 26.5t-143 79.5q-66 59 -100.5 136t-34.5 167zM229 1130q0 -68 54.5 -146.5t183.5 -139.5q10 6 20.5 12t20.5 12q121 78 173 143.5t52 143.5q0 51 -19.5 94t-53 74 t-79.5 48.5t-98 17.5q-53 0 -99 -20.5t-80 -55.5t-54.5 -82.5t-20.5 -100.5z" />
<glyph unicode="(" horiz-adv-x="563" d="M66 412v606q0 90 33.5 169t92 138t137.5 94t169 35v-65q-76 0 -142.5 -30t-117 -80t-79 -117.5t-28.5 -143.5v-606q0 -74 28.5 -140.5t79 -117t117 -80t142.5 -29.5v-65q-90 0 -169 34.5t-137.5 93t-92 137.5t-33.5 167z" />
<glyph unicode=")" horiz-adv-x="563" d="M66 -20v65q76 0 142 29.5t116.5 80t79 118t28.5 143.5v606q0 74 -27.5 140.5t-78 116.5t-117 80t-141.5 30v65q90 0 168.5 -35t137 -93t91.5 -137t33 -167v-606q0 -90 -34 -169t-92.5 -138.5t-137 -94t-168.5 -34.5z" />
<glyph unicode="," horiz-adv-x="233" d="M55 -63q25 41 34 72.5t13 80.5h66q-4 -66 -18.5 -109.5t-45.5 -93.5z" />
<glyph unicode="-" horiz-adv-x="835" d="M66 414v65h704v-65h-704z" />
<glyph unicode="." d="M66 0v90h65v-90h-65z" />
<glyph unicode="0" horiz-adv-x="999" d="M66 412v606q0 90 33.5 170t93 139t137.5 93t168 34t168.5 -34t138 -93t94.5 -139t35 -170v-606q0 -88 -35 -167t-94.5 -137.5t-138 -93t-168.5 -34.5t-168 34.5t-137.5 93t-93 137.5t-33.5 167zM131 412q0 -76 28.5 -142.5t79 -117t117 -79t142.5 -28.5t143.5 28.5 t117.5 79t79.5 117t29.5 142.5v606q0 76 -29.5 144.5t-79.5 118.5t-118 80t-143 30q-76 0 -142.5 -30t-117 -80t-79 -118.5t-28.5 -144.5v-606z" />
<glyph unicode="1" horiz-adv-x="428" d="M66 1360q98 68 229 74h65v-1434h-65v1368q-96 -6 -180 -57z" />
<glyph unicode="2" horiz-adv-x="983" d="M66 0v61q8 10 30.5 35t62.5 69t99 109.5t143 159.5q41 49 80 90t76 82q70 74 124 134.5t92 113.5t58.5 101.5t20.5 97.5q0 61 -25.5 121.5t-73.5 107.5t-117 77t-157 30q-102 0 -193 -51.5t-147 -141.5l-57 33q63 102 168 164q53 31 111.5 46t117.5 15q92 0 173 -29.5 t143 -89.5q59 -59 91 -132t32 -150q0 -59 -22 -113.5t-61.5 -113t-98 -123t-130.5 -142.5q-37 -39 -77 -80t-83 -88q-115 -133 -184 -210t-106 -117h762v-66h-852z" />
<glyph unicode="3" horiz-adv-x="1024" d="M66 311h69q18 -59 54 -107t84.5 -84t106.5 -55.5t124 -19.5q78 0 147.5 30.5t121.5 84t83 123t31 149.5q0 76 -30 144.5t-80 121t-118.5 84t-146.5 35.5v66h4q51 0 97 20.5t81 54t54.5 79.5t19.5 100q0 51 -19.5 97t-54.5 80t-81 54.5t-97 20.5t-96 -20.5t-79 -54.5 t-54.5 -80t-20.5 -97v-9h-65v9q0 66 24.5 123t67.5 100t100.5 68.5t122.5 25.5q66 0 123 -25.5t100 -68.5t69 -100.5t26 -122.5q0 -92 -47 -167t-123 -116q61 -25 114 -68t92 -98t60.5 -120.5t21.5 -135.5q0 -92 -35.5 -175t-97 -144.5t-142.5 -97t-173 -35.5 q-78 0 -148.5 24.5t-129 68.5t-99.5 105.5t-61 132.5z" />
<glyph unicode="4" horiz-adv-x="1144" d="M66 520v66l700 848h74v-848h237v-66h-237v-520h-66v520h-708zM152 586h622v757z" />
<glyph unicode="5" horiz-adv-x="1103" d="M68 467h65q0 -88 33 -165t90 -134t133 -90t162 -33q88 0 165 33t134 90t90 134t33 165q0 86 -33 162t-90 133t-134 90t-165 33q-78 0 -150.5 -29t-132.5 -82l-61 45l82 615h536v-66h-479l-65 -504q59 43 128.5 64.5t141.5 21.5q100 0 189 -38t156 -103.5t104.5 -153.5 t37.5 -188q0 -102 -37.5 -190.5t-104.5 -155t-156 -104t-189 -37.5t-188.5 37.5t-154 104t-103 155t-37.5 190.5z" />
<glyph unicode="6" horiz-adv-x="1001" d="M64.5 472q-1.5 77 17.5 194q8 53 22.5 117.5t40 133t63.5 137t91 132.5q70 84 146.5 134t140 77.5t105.5 36t46 10.5l17 -66q-2 0 -41 -8t-97.5 -32.5t-130 -71.5t-137.5 -125q-47 -57 -82 -120t-58.5 -124t-37.5 -120.5t-23 -110.5q55 78 139.5 128t188.5 56 q88 4 170 -25.5t144.5 -85t101.5 -132.5t43 -167q6 -90 -23.5 -170t-85 -142t-132.5 -101t-165 -45q-90 -6 -171 22.5t-143 83.5t-101 132t-43 167v4q-4 4 -5.5 81zM135 391q4 -76 38 -140.5t86 -111.5t120.5 -71.5t144.5 -20.5t141.5 38t111.5 86t70.5 120.5t20.5 144.5 t-37.5 142.5t-86 113.5t-121 71.5t-144.5 20.5q-78 -4 -143.5 -37.5t-111.5 -87t-70.5 -123t-18.5 -145.5z" />
<glyph unicode="7" horiz-adv-x="831" d="M66 1368v66h679l21 -58l-606 -1376h-70l602 1368h-626z" />
<glyph unicode="8" horiz-adv-x="1032" d="M66 434q0 70 22.5 135.5t62 120.5t96 98t122.5 68q-78 41 -123 114.5t-45 164.5q0 66 24.5 124t67.5 101t99.5 68.5t119.5 25.5q66 0 124 -25.5t101 -68.5t68.5 -101.5t25.5 -123.5q0 -90 -46.5 -164t-120.5 -115q66 -25 122 -68t96 -98t62.5 -120.5t22.5 -135.5 q0 -94 -36 -177t-97.5 -144.5t-144.5 -97t-177 -35.5q-90 0 -171 35.5t-142.5 97t-97 144.5t-35.5 177zM131 434q0 -80 31 -150.5t83 -124t120.5 -84t146.5 -30.5q80 0 150.5 30.5t124 84t84 124t30.5 150.5q0 76 -30.5 145.5t-84 122t-124 83t-150.5 30.5 q-78 0 -146.5 -30.5t-120.5 -83t-83 -122t-31 -145.5zM266 1135q0 -53 19.5 -99.5t53.5 -80t79 -54t94 -20.5q51 0 98 20.5t81 54t54.5 79.5t20.5 100q0 51 -20.5 98t-54.5 81t-81 54.5t-98 20.5q-49 0 -94 -20.5t-79 -54.5t-53.5 -81t-19.5 -98z" />
<glyph unicode="9" horiz-adv-x="1003" d="M68 989q-6 90 22.5 172t83.5 144.5t132 101.5t167 45q90 4 172 -25.5t144.5 -85t101.5 -132.5t45 -167q0 -4 2 -81.5t-14 -192.5q-10 -55 -25.5 -119.5t-40 -132t-62.5 -136.5t-89 -132q-72 -84 -149 -135.5t-140.5 -79t-106.5 -36.5t-47 -11l-12 65q66 10 135 41 q59 25 130 72t136 125q49 57 84 120.5t58.5 126t38 122t24.5 110.5q-55 -80 -140 -129t-188 -55q-90 -6 -172 22.5t-144 83.5t-101 132t-45 167zM133 993q4 -76 38 -140.5t87 -111.5t121.5 -71.5t146.5 -20.5q76 4 140.5 38t111.5 86t71.5 121t20.5 144q-4 76 -37.5 142.5 t-87 113.5t-123 72t-145.5 20q-76 -4 -140.5 -37.5t-111.5 -87t-71.5 -123t-20.5 -145.5z" />
<glyph unicode=":" d="M66 49v193h65v-193h-65zM66 598v193h65v-193h-65z" />
<glyph unicode="?" horiz-adv-x="970" d="M66 1225q61 106 167 168q53 31 113 46t121 15q90 0 170 -31.5t141 -91.5q59 -55 91 -129t32 -153v-5q0 -63 -18.5 -113t-49 -93t-72.5 -82t-89 -80q-4 -6 -9.5 -10t-11.5 -11q-80 -72 -110.5 -151.5t-30.5 -134.5h-64q0 66 37 159t127 177l21 20q45 41 83 77t65.5 72.5 t42 77.5t14.5 92v5q0 63 -26 123.5t-73 108.5t-115.5 78t-154.5 30q-104 0 -197.5 -52.5t-146.5 -144.5zM446 0v193h64v-193h-64z" />
<glyph unicode="@" horiz-adv-x="1552" d="M66 418q0 154 58 289t157.5 234t234.5 157.5t289 58.5q139 0 268.5 -50t229.5 -146q6 -4 35.5 -36t62.5 -89.5t59.5 -142.5t26.5 -197q0 -90 -20.5 -172t-61.5 -148q-37 -59 -85 -93t-93 -34h-66v139q-59 -92 -157.5 -150t-219.5 -58q-90 0 -169.5 34.5t-139 94 t-94.5 140.5t-35 173q0 90 35 170t94.5 139.5t139 94t169.5 34.5q127 0 230.5 -64.5t159.5 -168.5q4 25 9 49t11 49h66q-18 -68 -25.5 -128t-7.5 -85v-397q31 0 61.5 25.5t59.5 72.5q37 55 55 127t18 156q0 102 -24.5 180t-54 130t-54 78.5t-24.5 28.5q-96 86 -214 132.5 t-245 46.5q-139 0 -262 -53.5t-214 -144.5t-144.5 -214t-53.5 -262t53.5 -261t144.5 -212t214 -143.5t262 -53.5v-65q-154 0 -289 57t-234.5 157.5t-157.5 234.5t-58 286zM412 422q0 -78 29.5 -146.5t79.5 -120t118 -81t145 -29.5q76 0 143.5 27.5t119 77t81 114t33.5 137.5 v37q-4 74 -33.5 138.5t-81 113.5t-119 77t-143.5 28q-78 0 -145.5 -30t-117.5 -80t-79.5 -118.5t-29.5 -144.5z" />
<glyph unicode="A" horiz-adv-x="1288" d="M66 0l538 1434h72l547 -1434h-72l-299 784h-420l-295 -784h-71zM459 852h370l-186 487z" />
<glyph unicode="B" horiz-adv-x="1015" d="M66 0v1434h61h326q78 0 149.5 -28t124.5 -81q57 -49 86 -115.5t29 -138.5q0 -104 -53.5 -188t-141.5 -133q66 -16 122 -52t96 -84.5t62.5 -106.5t22.5 -122q0 -80 -33.5 -150.5t-94 -123t-141.5 -82t-173 -29.5h-381h-61zM127 68h381q80 0 148.5 25.5t120.5 68.5t82 100 t30 123t-30 124t-82 102t-120.5 70t-148.5 26h-55h-326v-639zM127 768h281h45q68 0 127 24.5t103 65.5t69.5 96.5t25.5 116.5t-25.5 114.5t-69.5 93.5t-103.5 63.5t-126.5 23.5h-326v-598z" />
<glyph unicode="C" horiz-adv-x="1300" d="M66 717q0 152 54 286t149.5 234t221 158.5t271.5 58.5q141 0 260 -50t213 -142q-12 -16 -23.5 -28.5t-21.5 -25.5q-92 86 -201.5 133.5t-226.5 47.5q-123 0 -237.5 -50.5t-200.5 -142.5q-92 -98 -141.5 -222t-49.5 -257q0 -137 49 -257t142 -218q86 -98 200.5 -146.5 t237.5 -48.5q117 0 226.5 44t201.5 126q8 -10 21.5 -22.5t23.5 -20.5q-94 -92 -213 -143t-260 -51q-145 0 -271 57t-221.5 157.5t-149.5 234.5t-54 288z" />
<glyph unicode="D" horiz-adv-x="1169" d="M66 0v1434h387q84 0 196.5 -39t214 -124t171 -221.5t69.5 -330.5q0 -197 -69.5 -333t-171 -222t-214 -125t-196.5 -39h-387zM131 66h322q45 0 106.5 14t127 47t129 84t112.5 123t79.5 168t30.5 217t-30.5 217t-79.5 168t-112.5 122t-129 81.5t-127 46t-106.5 14.5h-322 v-1302z" />
<glyph unicode="E" horiz-adv-x="856" d="M66 0v1434h725v-66h-660v-524h660v-66h-660v-712h660v-66h-725z" />
<glyph unicode="F" horiz-adv-x="856" d="M66 0v1434h725v-66h-660v-524h660v-66h-660v-778h-65z" />
<glyph unicode="G" horiz-adv-x="1495" d="M66 717q0 154 53 288t146 233t218 157.5t267 58.5q135 0 253.5 -51t210.5 -143q-12 -10 -24 -21.5t-25 -24.5q-84 84 -189.5 129.5t-225.5 45.5q-129 0 -242 -53.5t-197 -144.5t-133 -213t-49 -261t49 -261t133 -213t197 -144.5t242 -53.5q111 0 209 39t178 107.5 t135 161.5t80 204h-660v70h672h16h50q-16 -137 -75 -256t-150 -206t-207.5 -136t-247.5 -49q-141 0 -266.5 58t-218.5 157.5t-146 233.5t-53 288z" />
<glyph unicode="H" horiz-adv-x="1007" d="M66 0v1434h65v-590h746v590h65v-1434h-65v778h-746v-778h-65z" />
<glyph unicode="I" d="M66 0v1434h65v-1434h-65z" />
<glyph unicode="J" horiz-adv-x="745" d="M66 16v74q84 -45 180 -45q76 0 143.5 28.5t117.5 79t78.5 117t28.5 142.5v1022h66v-1026q0 -88 -35 -166t-93 -136.5t-138 -92t-168 -33.5q-94 0 -180 36z" />
<glyph unicode="K" horiz-adv-x="942" d="M66 0v1434h65v-811q139 4 251 47t196 129q88 88 134 196.5t67.5 204.5t24.5 161.5t3 68.5h65q0 -4 -2 -72t-26 -170q-10 -47 -27.5 -102.5t-43 -113t-62.5 -113.5t-88 -105q-78 -84 -193 -136l447 -618h-82l-426 594q-111 -37 -238 -37v-557h-65z" />
<glyph unicode="L" horiz-adv-x="856" d="M66 0v1434h65v-1368h660v-66h-725z" />
<glyph unicode="M" horiz-adv-x="1499" d="M66 0v1434h65l619 -1356l614 1356h70v-1434h-66v1282l-586 -1282h-69l-582 1282v-1282h-65z" />
<glyph unicode="N" horiz-adv-x="1159" d="M66 0v1434h73l889 -1328v1328h66v-1434h-70l-893 1327v-1327h-65z" />
<glyph unicode="O" horiz-adv-x="1603" d="M66 717q0 152 58 286t158.5 234t234.5 158.5t286 58.5t286 -58.5t233 -158.5t157.5 -234.5t58.5 -285.5q0 -154 -58.5 -288t-157.5 -233.5t-233.5 -157.5t-285.5 -58q-152 0 -286 58t-234.5 157.5t-158.5 233.5t-58 288zM131 717q0 -135 52.5 -258t146.5 -217 q96 -96 217 -146.5t256 -50.5q139 0 259 50.5t216 146.5q96 94 146.5 217t50.5 258t-50.5 257t-146.5 218t-216 146.5t-259 50.5q-135 0 -256 -50.5t-217 -146.5q-94 -96 -146.5 -218t-52.5 -257z" />
<glyph unicode="P" horiz-adv-x="1028" d="M66 0v1434h475q88 0 164.5 -33t134 -90.5t90.5 -134t33 -164.5t-33 -165t-90.5 -134.5t-134 -90t-164.5 -32.5h-410v-590h-65zM131 655h410q74 0 138 28t113.5 77t77 113.5t27.5 138.5t-27.5 138t-77 113.5t-114 77t-137.5 27.5h-410v-713z" />
<glyph unicode="Q" horiz-adv-x="1540" d="M0 717q0 154 58.5 288t158.5 233t234.5 157.5t285.5 58.5q154 0 288 -58.5t233.5 -157.5t158 -233t58.5 -288q0 -102 -27 -196.5t-74 -176.5t-115.5 -149.5t-150.5 -116.5q72 -31 146.5 -48.5t152.5 -17.5v-65q-197 0 -373 94q-133 -61 -297 -61q-152 0 -286 58 t-234 157.5t-158.5 233.5t-58.5 288zM66 717q0 -135 52 -258t146 -219q96 -94 217 -144.5t256 -50.5q61 0 119.5 9t114.5 32q-4 4 -6 4t-7 4q-104 74 -180 178h82q31 -37 64.5 -66.5t70.5 -58.5q12 -10 22.5 -16t20.5 -16q49 25 92.5 57.5t83.5 67.5q96 96 146.5 219 t50.5 258t-50 258t-147 219q-96 96 -216.5 146.5t-260.5 50.5q-135 0 -256 -50.5t-217 -146.5q-94 -96 -146 -219t-52 -258z" />
<glyph unicode="R" horiz-adv-x="1028" d="M66 0v1434h475q88 0 164.5 -33t134 -90.5t90.5 -134t33 -164.5t-33 -165t-90.5 -134.5t-134 -90t-164.5 -32.5l422 -590h-78l-426 590h-328v-590h-65zM131 655h410q74 0 138 28t113.5 77t77 113.5t27.5 138.5t-27.5 138t-77 113.5t-114 77t-137.5 27.5h-410v-713z" />
<glyph unicode="S" horiz-adv-x="1024" d="M66 1061q0 86 33.5 157.5t95.5 124.5q66 57 150.5 84t178.5 27q98 0 194.5 -34t168.5 -115l-49 -45q-49 63 -133 100t-181 37q-72 0 -141.5 -20.5t-124.5 -62.5t-89 -104.5t-34 -148.5q0 -72 33 -120t87 -81t124.5 -53.5t148.5 -38.5q72 -16 151 -42t145.5 -67 t110.5 -103t44 -155q0 -90 -38 -166.5t-105.5 -134t-160.5 -89t-204 -31.5q-115 0 -218 38.5t-175 114.5l55 45q59 -70 147.5 -104.5t190.5 -34.5q94 0 175 27.5t140.5 75.5t93 115t33.5 144q0 74 -33.5 124t-90 84t-130 55.5t-155.5 40.5q-74 23 -153 47t-144 61 q-31 23 -55.5 44.5t-42.5 49.5q-23 35 -33 73t-10 81z" />
<glyph unicode="T" horiz-adv-x="847" d="M66 1368v66h327h66h323v-66h-323v-1368h-66v1368h-327z" />
<glyph unicode="U" horiz-adv-x="1005" d="M66 420v1016h65v-1016q0 -78 29.5 -145.5t80 -118t118 -80t143.5 -29.5q78 0 146.5 29.5t118.5 80t78.5 118t28.5 145.5v1016h66v-1016q0 -90 -35 -170t-94 -139.5t-139 -94t-170 -34.5t-169 34.5t-138.5 94t-94 139.5t-34.5 170z" />
<glyph unicode="V" horiz-adv-x="1265" d="M66 1434h69l500 -1340l495 1340h70l-532 -1434h-70z" />
<glyph unicode="W" horiz-adv-x="2011" d="M66 1434h69l455 -1323l385 1323h65l385 -1323l455 1323h66l-488 -1434h-69l-381 1315l-381 -1315h-70z" />
<glyph unicode="X" horiz-adv-x="1130" d="M66 0l458 717l-458 717h77l422 -656l422 656h78l-459 -717l459 -717h-78l-422 655l-422 -655h-77z" />
<glyph unicode="Y" horiz-adv-x="1085" d="M66 997v437h63v-437q0 -78 33 -144.5t89 -117.5t132 -79.5t160 -28.5q86 0 160.5 28.5t130 79.5t88 118t32.5 144v437h66v-437q0 -41 -2 -107.5t-12.5 -147t-33 -170t-63.5 -175.5q-92 -184 -258 -288q-195 -123 -493 -123v65q256 0 427 94.5t267 280.5q41 84 60.5 169 t29.5 163q-66 -90 -170 -143.5t-229 -53.5q-98 0 -185.5 35t-152 94.5t-102 138t-37.5 168.5z" />
<glyph unicode="Z" horiz-adv-x="1052" d="M66 0v61l843 1307h-741v66h819v-62l-840 -1306h820v-66h-901z" />
<glyph unicode="a" horiz-adv-x="1052" d="M66 420q0 92 35.5 172t96 140.5t142.5 95t174 34.5q125 0 228.5 -63.5t158.5 -167.5q4 20 9 45.5t12 48.5h65q-20 -66 -26.5 -125t-6.5 -84v-516h-65v188q-59 -98 -156.5 -153t-218.5 -55q-92 0 -174 34.5t-142.5 94t-96 139.5t-35.5 172zM131 420q0 -78 29.5 -146.5 t82 -120t122 -81t149.5 -29.5q74 0 140.5 28.5t117.5 78t82 115t35 141.5v32q-4 76 -35 141.5t-82 113.5t-117.5 76t-140.5 28q-80 0 -149.5 -30t-122 -80t-82 -118.5t-29.5 -148.5z" />
<glyph unicode="b" horiz-adv-x="1015" d="M33 0q18 66 23 120t10 73v1241h65v-785q59 94 156.5 153.5t218.5 59.5q92 0 173 -34.5t140.5 -95t94 -141.5t34.5 -171q0 -92 -34.5 -172t-94 -139.5t-140.5 -94t-173 -34.5q-121 0 -218.5 58t-156.5 155q-4 -23 -8 -75t-25 -118h-65zM131 399q2 -74 33 -138t82 -112.5 t117.5 -76t142.5 -27.5q80 0 148.5 29.5t118.5 80t80 119t30 146.5q0 80 -30 147.5t-80 118.5t-118.5 80t-148.5 29q-76 0 -142.5 -28t-117.5 -76t-82 -113.5t-33 -141.5v-37z" />
<glyph unicode="c" horiz-adv-x="854" d="M66 420q0 90 34.5 170t94 140.5t140.5 96t173 35.5q78 0 150.5 -26.5t129.5 -75.5l-45 -47q-49 39 -109.5 61.5t-125.5 22.5q-78 0 -146.5 -30t-120 -81t-81 -119.5t-29.5 -146.5t29.5 -146.5t81 -121t120 -82t146.5 -29.5q66 0 126 22.5t109 61.5l45 -43 q-57 -49 -129.5 -75.5t-150.5 -26.5q-92 0 -173 34.5t-140.5 94t-94 139.5t-34.5 172z" />
<glyph unicode="d" horiz-adv-x="1013" d="M66 424q0 90 34.5 170t94 139.5t140.5 94t173 34.5q117 0 216 -56t159 -155v783h65v-1233q4 -23 9.5 -79t23.5 -122h-66q-16 61 -22 114.5t-6 78.5h-4q-59 -96 -158.5 -154.5t-216.5 -58.5q-92 0 -173 34.5t-140.5 95t-94 141.5t-34.5 173zM131 424q0 -80 29.5 -148.5 t81 -120t120 -81t146.5 -29.5q76 0 142.5 27.5t116.5 77t81 116t35 142.5v36q-4 72 -35 136.5t-81 113.5t-116.5 78t-142.5 29q-78 0 -146.5 -31t-120 -82t-81 -119.5t-29.5 -144.5z" />
<glyph unicode="e" horiz-adv-x="1013" d="M66 422q0 92 34.5 172t95 139.5t141.5 94t171 34.5q88 0 167 -33.5t138 -91t95 -135.5t40 -164h-33h-784v-16q0 -78 29.5 -146.5t81 -120t120 -81t146.5 -29.5q63 0 121.5 20.5t106.5 56.5t83 85t51 108h66q-16 -72 -56 -133t-97.5 -106t-127 -70.5t-147.5 -25.5 q-90 0 -171 34.5t-141.5 95t-95 141.5t-34.5 171zM139 506h735q-14 61 -47.5 115.5t-82 94.5t-108.5 62.5t-128 22.5t-128.5 -22.5t-109.5 -62.5t-82.5 -94.5t-48.5 -115.5z" />
<glyph unicode="f" horiz-adv-x="446" d="M66 778v66h81v250q0 102 43 190t117 150l45 -45q-61 -53 -98 -125t-41 -158v-262h188v-66h-188v-778h-66v778h-81z" />
<glyph unicode="g" horiz-adv-x="1019" d="M66 420q0 90 34.5 171t95 141.5t141.5 95t173 34.5q90 0 168 -31.5t137 -89.5q35 20 75 35t81 21v-64q-59 -12 -113 -43q47 -55 71.5 -123.5t24.5 -146.5q0 -145 -80.5 -259t-211.5 -161q74 -27 133 -77t98 -115.5t55 -143.5q9 -41 9 -82q0 -38 -7 -76q-4 -16 -10 -36.5 t-14 -38.5q-8 -23 -19 -45h-71q12 27 20 49q8 20 15.5 42.5t11.5 41.5q5 32 5 64q0 42 -8 83q-16 72 -57 135q-43 61 -108.5 101.5t-139.5 56.5q-30 4 -59 4q-53 0 -104 -13q-78 -22 -144 -75l-41 51q31 25 65 43.5t66 30.5q-66 23 -119 64.5t-91.5 96t-60 121t-21.5 138.5z M133 420q0 -78 30 -147.5t81 -122t119.5 -83t146.5 -30.5t146.5 30.5t119.5 83t81 122t30 147.5t-30 146.5t-81 119.5t-119.5 81t-146.5 30t-146.5 -30t-119.5 -81t-81 -119.5t-30 -146.5z" />
<glyph unicode="h" horiz-adv-x="929" d="M66 0v1434h65v-748q55 86 143 131t193 45q82 0 153.5 -27.5t125 -80t85 -128t33.5 -169.5v-4v-453h-69v453q0 82 -27 146.5t-72 108.5t-104.5 67.5t-124.5 25.5q-68 -2 -127 -25.5t-104.5 -67.5t-71 -108.5t-25.5 -146.5v-453h-73z" />
<glyph unicode="i" d="M66 0v842h65v-842h-65z" />
<glyph unicode="j" horiz-adv-x="262" d="M23 -614q49 53 77.5 118.5t28.5 143.5v1194h68v-1194q0 -76 -23.5 -141.5t-64.5 -120.5h-86z" />
<glyph unicode="k" horiz-adv-x="636" d="M66 0v1434h65v-947q76 0 142.5 28t116.5 77t82 113.5t36 138.5h63q-6 -129 -77.5 -232.5t-186.5 -152.5l264 -459h-71l-254 438q-29 -10 -56.5 -13t-58.5 -3v-422h-65z" />
<glyph unicode="l" d="M66 0v1434h65v-1434h-65z" />
<glyph unicode="m" horiz-adv-x="1531" d="M33 723h65q4 -18 8.5 -34.5t8.5 -33.5q2 6 4 10.5t4 8.5t4 6q72 127 203 166q27 6 53.5 11t54.5 5q106 0 194.5 -59.5t131.5 -169.5q2 0 4 -2v-4q43 113 132 174t204 61q74 0 140.5 -28.5t115.5 -82t77.5 -129t28.5 -169.5v-4v-449h-61v449q0 84 -24.5 149.5t-65.5 109.5 t-95.5 66.5t-115.5 22.5q-63 0 -118.5 -22.5t-96.5 -66.5t-64.5 -110t-23.5 -149v-449h-66v449q0 82 -23.5 147.5t-64.5 109.5t-94 67.5t-115 23.5q-66 0 -121 -23.5t-97 -67.5t-65.5 -110t-23.5 -147v-449h-65v518q0 18 -7.5 76.5t-25.5 128.5z" />
<glyph unicode="n" horiz-adv-x="952" d="M33 725h65q10 -16 13.5 -33.5t7.5 -34.5q10 12 12 21l4 8q55 86 145.5 131t194.5 45q84 0 158 -27.5t130 -81t89 -129t35 -173.5v-451h-70v451q0 84 -27.5 149.5t-74.5 109.5t-109.5 67.5t-130.5 23.5t-129 -23.5t-107 -67.5t-73 -109.5t-27 -149.5v-451h-73v526 q0 18 -7.5 73.5t-25.5 125.5z" />
<glyph unicode="o" horiz-adv-x="1011" d="M66 422q0 90 34.5 170t94 140.5t140.5 95t173 34.5q90 0 170 -34.5t139.5 -95t94 -140.5t34.5 -170q0 -92 -34.5 -173t-94 -140.5t-139.5 -94t-170 -34.5q-92 0 -173 34.5t-140.5 94t-94 140.5t-34.5 173zM127 422q0 -78 30.5 -146.5t83 -120t121 -81t146.5 -29.5 t146.5 29.5t118.5 81t80 120t30 146.5t-30 146.5t-80 118.5t-118.5 80t-146.5 30t-146.5 -30t-121 -80t-83 -118.5t-30.5 -146.5z" />
<glyph unicode="p" horiz-adv-x="1015" d="M29 725h69q6 -25 9.5 -50.5t7.5 -47.5q59 104 163.5 169.5t229.5 65.5q90 0 170 -35.5t140.5 -95t96 -140.5t35.5 -169q0 -92 -35.5 -174t-96 -141.5t-140.5 -94.5t-170 -35q-119 0 -218.5 56.5t-158.5 152.5v-800h-65v1118q0 2 -2.5 23.5t-6.5 52t-11 68.5t-17 77z M131 401q2 -74 33 -139t82 -114.5t117.5 -77t144.5 -27.5t146.5 29.5t119.5 81t81 120t30 148.5q0 76 -30 144.5t-81 119.5t-119.5 81t-146.5 30t-144.5 -29t-117.5 -77t-82 -113.5t-33 -139.5v-37z" />
<glyph unicode="q" horiz-adv-x="1050" d="M66 420q0 90 34.5 170t95 140.5t140.5 95t172 34.5q127 0 230.5 -63.5t156.5 -167.5q6 23 10 48t10 50h70q-10 -35 -17 -70.5t-10.5 -65.5t-5.5 -51.5t-4 -29.5v-885q0 -139 90 -239h-80q-35 53 -55 112.5t-20 126.5v565q-57 -96 -155.5 -154.5t-219.5 -58.5 q-92 0 -172 35t-140.5 94.5t-95 140.5t-34.5 173zM131 420q0 -78 29.5 -146.5t81 -120t120 -81t146.5 -29.5t146.5 29.5t118.5 81t80 120t30 146.5t-30 146.5t-80 118.5t-118.5 80t-146.5 30t-146.5 -30t-120 -80t-81 -118.5t-29.5 -146.5z" />
<glyph unicode="r" horiz-adv-x="499" d="M33 729h65q6 -25 11.5 -48.5t9.5 -45.5l12 20q49 96 128 151.5t175 55.5v-63q-63 0 -118.5 -33t-96.5 -88t-64.5 -130t-23.5 -159v-389h-65v506q0 8 -1.5 29.5t-4.5 52t-10 67.5t-17 74z" />
<glyph unicode="s" horiz-adv-x="690" d="M66 621q0 109 77.5 175t200.5 66q78 0 138.5 -26.5t92.5 -75.5l-47 -49q-31 47 -80 66.5t-104 19.5q-39 0 -76 -10.5t-65.5 -32t-46 -55t-17.5 -78.5q0 -74 57.5 -104t155.5 -50q45 -12 94.5 -27.5t88 -40t64.5 -63.5t26 -98q0 -55 -22.5 -102.5t-63.5 -82.5t-97.5 -54 t-122.5 -19q-80 0 -144 26.5t-105 75.5l49 45q31 -37 83 -61.5t117 -24.5q49 0 92.5 15.5t74 42t49 62.5t18.5 77q0 39 -15.5 65.5t-43 44t-69.5 29.5t-93 24q-45 10 -92 24.5t-86 38t-63.5 61.5t-24.5 96z" />
<glyph unicode="t" horiz-adv-x="446" d="M66 778v66h81v590h66v-590h188v-66h-188v-446q4 -86 41 -160t98 -127l-45 -45q-74 61 -117 149.5t-43 190.5v438h-81z" />
<glyph unicode="u" horiz-adv-x="919" d="M66 397v445h69v-439q0 -88 25.5 -155.5t69.5 -113.5t102.5 -69.5t124.5 -23.5q68 0 128 23.5t104 69.5t69.5 113.5t25.5 155.5v439h70v-631q0 -8 2 -28.5t5 -49.5t9.5 -63.5t16.5 -71.5h-64q-12 47 -19 91t-11 73q-53 -92 -141.5 -137t-194.5 -45q-80 0 -150.5 27.5 t-125 80.5t-85 131t-30.5 178z" />
<glyph unicode="v" horiz-adv-x="712" d="M25 842h69l262 -740l258 740h70l-295 -842h-65z" />
<glyph unicode="w" horiz-adv-x="1302" d="M25 842h73l258 -740l260 740h66h4l258 -740l262 740h70l-299 -842h-62l-266 748l-260 -748h-65z" />
<glyph unicode="x" horiz-adv-x="935" d="M66 61q0 141 71.5 251t181.5 163q-104 41 -172.5 140.5t-76.5 226.5h57q6 -72 34.5 -132.5t74 -105.5t103.5 -71.5t124 -28.5l2 2q2 0 3 1t3 1q0 -2 2 -2q2 -2 6 -2q63 2 120.5 28.5t101.5 71.5t73 105.5t35 132.5h61q-12 -127 -79.5 -226.5t-169.5 -140.5 q111 -53 180 -162.5t69 -251.5v-30.5t-4 -30.5h-61q4 16 6 30.5t2 30.5q0 76 -26.5 144.5t-71.5 120t-106.5 82t-129.5 34.5h-8h-12q-70 -4 -130.5 -34.5t-105.5 -82t-70.5 -120t-25.5 -144.5v-30.5t4 -30.5h-61q0 16 -2 30.5t-2 30.5z" />
<glyph unicode="y" horiz-adv-x="946" d="M66 389v453h71v-453q0 -86 26.5 -151.5t73 -109.5t108 -67.5t130.5 -23.5q70 0 130.5 23.5t105.5 67.5t71.5 109.5t26.5 151.5v453h72v-453q0 -152 -71 -250t-183 -139q65 -27 110 -66t82 -92q31 -45 56.5 -107.5t25.5 -140.5q0 -119 -41 -206h-80q49 86 49 206 q0 57 -16 105.5t-38.5 85.5t-45 60.5t-33.5 33.5q-43 41 -100 62.5t-121 21.5q-66 0 -125 -23.5t-102 -64.5l-49 47q29 25 58.5 43.5t64.5 34.5q-113 41 -184.5 139.5t-71.5 249.5z" />
<glyph unicode="z" horiz-adv-x="821" d="M66 0v66l604 710h-604v66h690v-74l-596 -707h596v-61h-670h-20z" />
<glyph unicode="|" d="M66 -82v1598h65v-1598h-65z" />
<glyph unicode="&#xad;" horiz-adv-x="835" d="M66 414v65h704v-65h-704z" />
<glyph unicode="&#x2000;" horiz-adv-x="758" />
<glyph unicode="&#x2001;" horiz-adv-x="1516" />
<glyph unicode="&#x2002;" horiz-adv-x="758" />
<glyph unicode="&#x2003;" horiz-adv-x="1516" />
<glyph unicode="&#x2004;" horiz-adv-x="505" />
<glyph unicode="&#x2005;" horiz-adv-x="379" />
<glyph unicode="&#x2006;" horiz-adv-x="252" />
<glyph unicode="&#x2007;" horiz-adv-x="252" />
<glyph unicode="&#x2008;" horiz-adv-x="189" />
<glyph unicode="&#x2009;" horiz-adv-x="303" />
<glyph unicode="&#x200a;" horiz-adv-x="84" />
<glyph unicode="&#x2010;" horiz-adv-x="835" d="M66 414v65h704v-65h-704z" />
<glyph unicode="&#x2011;" horiz-adv-x="835" d="M66 414v65h704v-65h-704z" />
<glyph unicode="&#x2012;" horiz-adv-x="835" d="M66 414v65h704v-65h-704z" />
<glyph unicode="&#x2013;" horiz-adv-x="1083" d="M66 414v65h950v-65h-950z" />
<glyph unicode="&#x2014;" horiz-adv-x="1286" d="M66 414v65h1155v-65h-1155z" />
<glyph unicode="&#x202f;" horiz-adv-x="303" />
<glyph unicode="&#x205f;" horiz-adv-x="379" />
<glyph unicode="&#xe000;" horiz-adv-x="839" d="M0 0v840h840v-840h-840z" />
</font>
</defs>
</svg>
